<svg fill="none" overflow="visible" class="hidden" height="0" width="0" version="1.1" xmlns="http://www.w3.org/2000/svg"  xmlns:xlink="http://www.w3.org/1999/xlink">
    <defs>
        <symbol id="github-icon"  viewBox="0 0 25 22">
        <path  d="M8.10059 17.5591C8.10059 17.6493 7.98828 17.7214 7.84668 17.7214C7.68555 17.7349 7.57324 17.6628 7.57324 17.5591C7.57324 17.4689 7.68555 17.3967 7.82715 17.3967C7.97363 17.3832 8.10059 17.4554 8.10059 17.5591ZM6.58203 17.3561C6.54785 17.4463 6.64551 17.55 6.79199 17.5771C6.91895 17.6222 7.06543 17.5771 7.09473 17.4869C7.12402 17.3967 7.03125 17.293 6.88477 17.2524C6.75781 17.2209 6.61621 17.266 6.58203 17.3561ZM8.74023 17.2795C8.59863 17.3111 8.50098 17.3967 8.51562 17.5004C8.53027 17.5906 8.65723 17.6493 8.80371 17.6177C8.94531 17.5861 9.04297 17.5004 9.02832 17.4103C9.01367 17.3246 8.88184 17.266 8.74023 17.2795ZM11.9531 0C5.18066 0 0 4.74825 0 11.0026C0 16.0034 3.4082 20.2827 8.27637 21.7888C8.90137 21.8925 9.12109 21.5362 9.12109 21.2431C9.12109 20.9636 9.10645 19.4214 9.10645 18.4744C9.10645 18.4744 5.68848 19.1508 4.9707 17.1307C4.9707 17.1307 4.41406 15.8185 3.61328 15.4803C3.61328 15.4803 2.49512 14.7723 3.69141 14.7859C3.69141 14.7859 4.90723 14.8761 5.57617 15.9493C6.64551 17.6898 8.4375 17.1893 9.13574 16.8917C9.24805 16.1702 9.56543 15.6697 9.91699 15.3721C7.1875 15.0925 4.43359 14.7273 4.43359 10.3893C4.43359 9.14929 4.80469 8.52702 5.58594 7.73339C5.45898 7.44028 5.04395 6.2318 5.71289 4.6716C6.7334 4.37849 9.08203 5.8891 9.08203 5.8891C10.0586 5.63658 11.1084 5.50581 12.1484 5.50581C13.1885 5.50581 14.2383 5.63658 15.2148 5.8891C15.2148 5.8891 17.5635 4.37398 18.584 4.6716C19.2529 6.23631 18.8379 7.44028 18.7109 7.73339C19.4922 8.53152 19.9707 9.1538 19.9707 10.3893C19.9707 14.7408 17.0947 15.088 14.3652 15.3721C14.8145 15.7283 15.1953 16.4047 15.1953 17.4644C15.1953 18.984 15.1807 20.8644 15.1807 21.2341C15.1807 21.5272 15.4053 21.8835 16.0254 21.7797C20.9082 20.2827 24.2188 16.0034 24.2188 11.0026C24.2188 4.74825 18.7256 0 11.9531 0ZM4.74609 15.5524C4.68262 15.5975 4.69727 15.7013 4.78027 15.7869C4.8584 15.8591 4.9707 15.8906 5.03418 15.832C5.09766 15.7869 5.08301 15.6832 5 15.5975C4.92188 15.5254 4.80957 15.4938 4.74609 15.5524ZM4.21875 15.1872C4.18457 15.2458 4.2334 15.318 4.33105 15.3631C4.40918 15.4081 4.50684 15.3946 4.54102 15.3315C4.5752 15.2729 4.52637 15.2007 4.42871 15.1556C4.33105 15.1286 4.25293 15.1421 4.21875 15.1872ZM5.80078 16.7925C5.72266 16.8511 5.75195 16.9864 5.86426 17.0721C5.97656 17.1758 6.11816 17.1893 6.18164 17.1172C6.24512 17.0585 6.21582 16.9233 6.11816 16.8376C6.01074 16.7339 5.86426 16.7203 5.80078 16.7925ZM5.24414 16.1296C5.16602 16.1747 5.16602 16.292 5.24414 16.3957C5.32227 16.4994 5.4541 16.5445 5.51758 16.4994C5.5957 16.4408 5.5957 16.3235 5.51758 16.2198C5.44922 16.1161 5.32227 16.071 5.24414 16.1296Z" fill="black"></path>
        </symbol>
        <symbol id="insta-icon" viewBox="0 0 22 22">
        <path  d="M10.946 5.33081C7.84058 5.33081 5.33569 7.83569 5.33569 10.9412C5.33569 14.0466 7.84058 16.5515 10.946 16.5515C14.0515 16.5515 16.5564 14.0466 16.5564 10.9412C16.5564 7.83569 14.0515 5.33081 10.946 5.33081ZM10.946 14.5886C8.93921 14.5886 7.29858 12.9529 7.29858 10.9412C7.29858 8.92944 8.93433 7.2937 10.946 7.2937C12.9578 7.2937 14.5935 8.92944 14.5935 10.9412C14.5935 12.9529 12.9529 14.5886 10.946 14.5886ZM18.0945 5.10132C18.0945 5.82886 17.5085 6.40991 16.7859 6.40991C16.0584 6.40991 15.4773 5.82397 15.4773 5.10132C15.4773 4.37866 16.0632 3.79272 16.7859 3.79272C17.5085 3.79272 18.0945 4.37866 18.0945 5.10132ZM21.8103 6.42944C21.7273 4.67651 21.3269 3.12378 20.0427 1.84448C18.7634 0.565185 17.2107 0.164795 15.4578 0.0769043C13.6511 -0.0256348 8.23608 -0.0256348 6.42944 0.0769043C4.6814 0.159912 3.12866 0.560303 1.84448 1.8396C0.560303 3.1189 0.164795 4.67163 0.0769043 6.42456C-0.0256348 8.2312 -0.0256348 13.6462 0.0769043 15.4529C0.159912 17.2058 0.560303 18.7585 1.84448 20.0378C3.12866 21.3171 4.67651 21.7175 6.42944 21.8054C8.23608 21.908 13.6511 21.908 15.4578 21.8054C17.2107 21.7224 18.7634 21.322 20.0427 20.0378C21.322 18.7585 21.7224 17.2058 21.8103 15.4529C21.9128 13.6462 21.9128 8.23608 21.8103 6.42944ZM19.4763 17.3914C19.0955 18.3484 18.3582 19.0857 17.3962 19.4714C15.9558 20.0427 12.5378 19.9109 10.946 19.9109C9.35425 19.9109 5.9314 20.0378 4.49585 19.4714C3.53882 19.0906 2.80151 18.3533 2.41577 17.3914C1.84448 15.9509 1.97632 12.533 1.97632 10.9412C1.97632 9.34937 1.84937 5.92651 2.41577 4.49097C2.79663 3.53394 3.53394 2.79663 4.49585 2.41089C5.93628 1.8396 9.35425 1.97144 10.946 1.97144C12.5378 1.97144 15.9607 1.84448 17.3962 2.41089C18.3533 2.79175 19.0906 3.52905 19.4763 4.49097C20.0476 5.9314 19.9158 9.34937 19.9158 10.9412C19.9158 12.533 20.0476 15.9558 19.4763 17.3914Z" fill="black"></path>
        </symbol>
        <symbol  id="fb-icon" viewBox="0 0 25 25">
        <path d="M24.2188 12.1094C24.2188 5.41992 18.7988 0 12.1094 0C5.41992 0 0 5.41992 0 12.1094C0 18.1533 4.42822 23.1631 10.2173 24.0723V15.6099H7.14111V12.1094H10.2173V9.44141C10.2173 6.40674 12.0239 4.73047 14.791 4.73047C16.1162 4.73047 17.502 4.9668 17.502 4.9668V7.94531H15.9746C14.4707 7.94531 14.0015 8.87891 14.0015 9.83643V12.1094H17.3599L16.8228 15.6099H14.0015V24.0723C19.7905 23.1631 24.2188 18.1533 24.2188 12.1094Z" fill="black"></path>
        </symbol>
        <symbol id="twitter-icon" viewBox="0 0 25 25">
        <path  d="M22.4302 5.06025C22.446 5.28232 22.446 5.50444 22.446 5.72651C22.446 12.5 17.2906 20.3045 7.86802 20.3045C4.96509 20.3045 2.26841 19.4638 0 18.0044C0.412451 18.052 0.808984 18.0679 1.2373 18.0679C3.63257 18.0679 5.83755 17.2589 7.59834 15.8788C5.3458 15.8312 3.45811 14.356 2.80771 12.3255C3.125 12.373 3.44224 12.4048 3.77539 12.4048C4.2354 12.4048 4.69546 12.3413 5.12373 12.2303C2.77603 11.7544 1.01519 9.69224 1.01519 7.20176V7.13833C1.69727 7.51904 2.49048 7.75698 3.33115 7.78867C1.95107 6.8686 1.04692 5.29819 1.04692 3.52153C1.04692 2.56978 1.30068 1.69731 1.74487 0.935889C4.26709 4.04502 8.05835 6.07544 12.3096 6.29756C12.2303 5.91685 12.1827 5.52031 12.1827 5.12373C12.1827 2.3001 14.4669 0 17.3064 0C18.7816 0 20.1141 0.618652 21.05 1.61802C22.208 1.39595 23.3184 0.967627 24.302 0.380713C23.9212 1.57046 23.1122 2.56982 22.0494 3.2043C23.0805 3.09331 24.0799 2.80771 24.9999 2.41118C24.302 3.42637 23.4295 4.33052 22.4302 5.06025Z" fill="black"></path>
        </symbol>
    </defs>
</svg>


