<svg width="402" height="367" viewBox="0 0 402 367" fill="none" xmlns="http://www.w3.org/2000/svg">
<g id="section-img01 1">
<path id="Vector" d="M219.427 102.206C239.87 102.206 256.443 84.6745 256.443 63.0488C256.443 41.4231 239.87 23.8921 219.427 23.8921C198.984 23.8921 182.412 41.4231 182.412 63.0488C182.412 84.6745 198.984 102.206 219.427 102.206Z" fill="#A0616A"/>
<path id="Vector_2" d="M191.8 82.6272C191.8 82.6272 198.774 138.241 188.044 144.484C177.315 150.726 251.883 151.293 251.883 151.293C251.883 151.293 235.253 103.057 242.763 88.3021L191.8 82.6272Z" fill="#A0616A"/>
<path id="Vector_3" d="M306.332 151.575L300.131 181.447L287.018 244.648L286.626 248.109L282.1 288.178L279.09 314.797L277.072 332.678C264.8 339.35 255.905 343.956 255.905 343.956C255.905 343.956 255.14 339.898 253.907 334.707C245.294 337.438 229.358 341.97 215.853 342.875C220.77 348.674 223.031 354.121 219.965 358.141C210.713 370.261 172.518 344.872 159.159 335.404C158.848 337.671 158.73 339.963 158.806 342.252L148.583 333.935L149.595 314.797L151.301 282.417L153.446 241.809C152.769 240.071 152.203 238.287 151.749 236.469C148.618 224.69 144.818 201.17 141.903 181.447C139.558 165.574 137.796 152.161 137.423 149.306C137.373 148.934 137.348 148.742 137.348 148.742L193.941 122.288C197.963 132.155 216.744 135.121 216.744 135.121C232.303 133.987 244.499 125.307 244.499 125.307L306.332 151.575Z" fill="#D0CDE1"/>
<path id="Vector_4" d="M260.199 332.609C260.199 332.609 257.803 333.477 253.907 334.707C245.294 337.438 229.358 341.97 215.853 342.875C204.225 343.663 194.399 341.767 192.602 333.743C191.832 330.292 192.924 327.454 195.305 325.122C202.413 318.152 220.977 315.654 235.7 314.797C239.858 314.557 243.704 314.446 246.905 314.403C252.341 314.329 255.905 314.446 255.905 314.446L255.991 314.797L260.199 332.609Z" fill="#A0616A"/>
<path id="Vector_5" d="M188.634 26.0101L181.713 23.0791C181.713 23.0791 196.184 6.22555 216.318 7.69114L210.655 1.09621C210.655 1.09621 224.497 -4.76583 237.08 10.6221C243.695 18.7112 251.349 28.2196 256.12 38.9306H263.532L260.439 46.136L271.266 53.3415L260.153 52.0472C260.815 55.993 260.917 60.0213 260.454 63.9988C259.978 67.9776 258.058 71.6048 255.101 74.1149V74.1149C255.101 74.1149 246.518 55.3206 246.518 52.3895V59.7171C246.518 59.7171 239.597 53.1223 239.597 48.7257L235.822 53.8551L233.934 45.7946L210.655 53.8551L214.43 47.2603L199.959 49.4585L205.622 41.3981C205.622 41.3981 189.263 50.924 188.634 58.9844C188.005 67.0448 183.216 74.6824 183.216 74.6824C183.216 74.6824 170.388 37.0015 188.634 26.0101Z" fill="#2F2E41"/>
<path id="Vector_6" d="M346.566 288.908C342.796 293.231 333.453 299.744 322.128 306.794C317.915 309.414 313.43 312.113 308.854 314.797C297.936 321.203 286.505 327.55 277.072 332.678C264.8 339.35 255.905 343.956 255.905 343.956C255.905 343.956 255.14 339.898 253.907 334.707C252.256 327.758 249.769 318.775 247.177 314.797C247.086 314.659 246.996 314.531 246.905 314.403C246.15 313.354 245.39 312.742 244.64 312.742L282.1 288.178L298.288 277.56L286.626 248.109L271.998 211.165L280.827 181.447L289.701 151.575H306.332C306.332 151.575 311.839 164.29 318.881 182.022C319.933 184.674 321.02 187.438 322.128 190.292C336.615 227.566 354.675 279.616 346.566 288.908Z" fill="#D0CDE1"/>
<path id="Vector_7" d="M219.965 358.141C210.713 370.261 172.518 344.872 159.159 335.404C156.249 333.343 154.518 332.039 154.518 332.039L166.739 314.797L170.61 309.339C170.61 309.339 174.073 311.283 179.193 314.446C179.379 314.563 179.565 314.68 179.756 314.797C184.171 317.539 189.713 321.123 195.305 325.122C203.022 330.644 210.824 336.943 215.853 342.875C220.77 348.674 223.031 354.121 219.965 358.141Z" fill="#A0616A"/>
<path id="Vector_8" d="M179.193 314.446C177.827 314.44 176.463 314.558 175.115 314.797C163.543 316.9 160.13 327.981 159.159 335.404C158.848 337.671 158.73 339.963 158.806 342.252L148.583 333.935L144.858 330.905C135.893 327.598 127.905 321.725 120.979 314.797C114.97 308.681 109.58 301.919 104.896 294.621C100.231 287.428 96.0719 279.882 92.4529 272.044C91.4432 269.857 90.9004 267.461 90.863 265.027C90.8256 262.593 91.2945 260.181 92.2365 257.96L104.896 228.114L123.4 184.493C123.536 183.455 123.685 182.439 123.848 181.447C127.517 159.189 137.348 149.306 137.348 149.306H144.858L149.882 181.447L156.123 221.378L151.749 236.469L141.642 271.32L151.301 282.417L179.193 314.446Z" fill="#D0CDE1"/>
<path id="Vector_9" d="M187.693 221.41L194.113 229.334C196.498 228.853 198.989 228.287 201.555 227.652L199.711 221.41L204.22 226.975C231.4 219.903 265.09 206.154 265.09 206.154C265.09 206.154 228.718 208.975 201.561 202.699C189.545 199.922 177.183 206.223 172.252 218.142C169.386 225.07 169.836 231.072 180.001 231.072C183.435 231.01 186.86 230.669 190.246 230.053L187.693 221.41Z" fill="#8C8C8C"/>
<path id="Vector_10" d="M334.057 351.645V354.877C334.059 355.764 333.904 356.644 333.599 357.47C333.464 357.839 333.301 358.195 333.111 358.535C332.511 359.601 331.66 360.483 330.641 361.095C329.622 361.707 328.469 362.029 327.297 362.028H102.52C101.348 362.029 100.196 361.707 99.1767 361.095C98.1575 360.483 97.3063 359.601 96.7064 358.535C96.5166 358.195 96.3533 357.839 96.2181 357.47C95.9137 356.644 95.7583 355.764 95.76 354.877V351.645C95.7598 350.706 95.9345 349.776 96.2741 348.908C96.6138 348.04 97.1117 347.252 97.7395 346.588C98.3673 345.924 99.1126 345.397 99.9329 345.038C100.753 344.678 101.632 344.494 102.52 344.494H115.477V342.987C115.477 342.948 115.484 342.909 115.498 342.873C115.512 342.836 115.533 342.804 115.559 342.776C115.585 342.748 115.616 342.726 115.651 342.711C115.685 342.696 115.722 342.689 115.759 342.689H122.519C122.556 342.689 122.593 342.696 122.627 342.711C122.661 342.726 122.692 342.748 122.718 342.776C122.744 342.804 122.765 342.836 122.779 342.873C122.794 342.909 122.801 342.948 122.801 342.987V344.494H127.024V342.987C127.024 342.948 127.031 342.909 127.045 342.873C127.059 342.836 127.08 342.804 127.106 342.776C127.133 342.748 127.164 342.726 127.198 342.711C127.232 342.696 127.269 342.689 127.306 342.689H134.066C134.103 342.689 134.14 342.696 134.174 342.711C134.208 342.726 134.239 342.748 134.265 342.776C134.292 342.804 134.312 342.836 134.327 342.873C134.341 342.909 134.348 342.948 134.348 342.987V344.494H138.576V342.987C138.576 342.948 138.583 342.909 138.597 342.873C138.612 342.836 138.632 342.804 138.659 342.776C138.685 342.748 138.716 342.726 138.75 342.711C138.784 342.696 138.821 342.689 138.858 342.689H145.618C145.655 342.689 145.692 342.696 145.726 342.711C145.76 342.726 145.791 342.748 145.818 342.776C145.844 342.804 145.865 342.836 145.879 342.873C145.893 342.909 145.9 342.948 145.9 342.987V344.494H150.123V342.987C150.123 342.948 150.13 342.909 150.145 342.873C150.159 342.836 150.18 342.804 150.206 342.776C150.232 342.748 150.263 342.726 150.297 342.711C150.331 342.696 150.368 342.689 150.405 342.689H157.165C157.202 342.689 157.239 342.696 157.273 342.711C157.308 342.726 157.339 342.748 157.365 342.776C157.391 342.804 157.412 342.836 157.426 342.873C157.44 342.909 157.447 342.948 157.447 342.987V344.494H161.67V342.987C161.67 342.948 161.678 342.909 161.692 342.873C161.706 342.836 161.727 342.804 161.753 342.776C161.779 342.748 161.81 342.726 161.844 342.711C161.879 342.696 161.915 342.689 161.952 342.689H168.713C168.75 342.689 168.786 342.696 168.82 342.711C168.855 342.726 168.886 342.748 168.912 342.776C168.938 342.804 168.959 342.836 168.973 342.873C168.987 342.909 168.994 342.948 168.994 342.987V344.494H173.223V342.987C173.223 342.948 173.23 342.909 173.244 342.873C173.258 342.836 173.279 342.804 173.305 342.776C173.331 342.748 173.362 342.726 173.397 342.711C173.431 342.696 173.468 342.689 173.505 342.689H180.265C180.302 342.689 180.338 342.696 180.373 342.711C180.407 342.726 180.438 342.748 180.464 342.776C180.49 342.804 180.511 342.836 180.525 342.873C180.539 342.909 180.547 342.948 180.547 342.987V344.494H184.77V342.987C184.77 342.948 184.777 342.909 184.791 342.873C184.805 342.836 184.826 342.804 184.852 342.776C184.878 342.748 184.91 342.726 184.944 342.711C184.978 342.696 185.015 342.689 185.052 342.689H238.006C238.043 342.689 238.079 342.696 238.114 342.711C238.148 342.726 238.179 342.748 238.205 342.776C238.231 342.804 238.252 342.836 238.266 342.873C238.28 342.909 238.288 342.948 238.287 342.987V344.494H242.516V342.987C242.516 342.948 242.523 342.909 242.537 342.873C242.551 342.836 242.572 342.804 242.598 342.776C242.624 342.748 242.655 342.726 242.69 342.711C242.724 342.696 242.761 342.689 242.798 342.689H249.558C249.632 342.689 249.704 342.721 249.756 342.777C249.809 342.833 249.839 342.908 249.84 342.987V344.494H254.063V342.987C254.063 342.948 254.07 342.909 254.084 342.873C254.098 342.836 254.119 342.804 254.145 342.776C254.172 342.748 254.203 342.726 254.237 342.711C254.271 342.696 254.308 342.689 254.345 342.689H261.105C261.142 342.689 261.179 342.696 261.213 342.711C261.247 342.726 261.278 342.748 261.304 342.776C261.331 342.804 261.351 342.836 261.366 342.873C261.38 342.909 261.387 342.948 261.387 342.987V344.494H265.61V342.987C265.61 342.948 265.617 342.909 265.631 342.873C265.646 342.836 265.666 342.804 265.693 342.776C265.719 342.748 265.75 342.726 265.784 342.711C265.818 342.696 265.855 342.689 265.892 342.689H272.652C272.689 342.689 272.726 342.696 272.76 342.711C272.794 342.726 272.825 342.748 272.852 342.776C272.878 342.804 272.899 342.836 272.913 342.873C272.927 342.909 272.934 342.948 272.934 342.987V344.494H277.162V342.987C277.162 342.948 277.169 342.909 277.184 342.873C277.198 342.836 277.219 342.804 277.245 342.776C277.271 342.748 277.302 342.726 277.336 342.711C277.37 342.696 277.407 342.689 277.444 342.689H284.204C284.278 342.69 284.349 342.722 284.401 342.777C284.453 342.833 284.482 342.909 284.481 342.987V344.494H288.709V342.987C288.709 342.948 288.717 342.909 288.731 342.873C288.745 342.836 288.766 342.804 288.792 342.776C288.818 342.748 288.849 342.726 288.883 342.711C288.918 342.696 288.954 342.689 288.991 342.689H295.752C295.789 342.689 295.825 342.696 295.859 342.711C295.894 342.726 295.925 342.748 295.951 342.776C295.977 342.804 295.998 342.836 296.012 342.873C296.026 342.909 296.033 342.948 296.033 342.987V344.494H300.257V342.987C300.257 342.948 300.264 342.909 300.278 342.873C300.292 342.836 300.313 342.804 300.339 342.776C300.365 342.748 300.396 342.726 300.431 342.711C300.465 342.696 300.501 342.689 300.539 342.689H307.299C307.336 342.689 307.372 342.696 307.407 342.711C307.441 342.726 307.472 342.748 307.498 342.776C307.524 342.804 307.545 342.836 307.559 342.873C307.573 342.909 307.581 342.948 307.581 342.987V344.494H327.297C328.185 344.494 329.064 344.678 329.885 345.038C330.705 345.397 331.45 345.924 332.078 346.588C332.706 347.252 333.204 348.04 333.543 348.908C333.883 349.776 334.058 350.706 334.057 351.645V351.645Z" fill="#3F3D56"/>
<path id="Vector_11" d="M399.419 357.47H30.4536V358.535H399.419V357.47Z" fill="#3F3D56"/>
<path id="Vector_12" d="M315.959 215.526H232.177V213.7H194.188V215.526H110.061C108.558 215.526 107.116 216.158 106.054 217.282C104.991 218.407 104.394 219.931 104.394 221.521V342.881C104.394 344.471 104.991 345.996 106.054 347.12C107.116 348.244 108.558 348.876 110.061 348.876H315.959C317.462 348.876 318.903 348.244 319.966 347.12C321.029 345.996 321.626 344.471 321.626 342.881V221.521C321.626 220.734 321.479 219.955 321.194 219.227C320.91 218.5 320.492 217.839 319.966 217.282C319.44 216.726 318.815 216.284 318.127 215.983C317.44 215.681 316.703 215.526 315.959 215.526V215.526Z" fill="#3F3D56"/>
<path id="Vector_13" d="M213.175 271.208C220.125 271.208 225.759 265.248 225.759 257.896C225.759 250.544 220.125 244.584 213.175 244.584C206.225 244.584 200.591 250.544 200.591 257.896C200.591 265.248 206.225 271.208 213.175 271.208Z" stroke="#D0CDE1" stroke-width="2" stroke-miterlimit="10"/>
<path id="Vector_14" d="M209.148 276C216.098 276 221.732 270.04 221.732 262.688C221.732 255.336 216.098 249.376 209.148 249.376C202.198 249.376 196.564 255.336 196.564 262.688C196.564 270.04 202.198 276 209.148 276Z" fill="#D0CDE1"/>
<path id="Vector_15" d="M54.5878 352.09H40.4937V367H54.5878V352.09Z" fill="#D0CDE1"/>
<path id="Vector_16" d="M46.0326 340.376V358.48H63.147V340.376H46.0326ZM62.402 357.692H46.7725V341.164H62.402V357.692Z" fill="#3F3D56"/>
<path id="Vector_17" d="M380.768 352.09H366.673V367H380.768V352.09Z" fill="#D0CDE1"/>
<path id="Vector_18" d="M372.212 340.376V358.48H389.327V340.376H372.212ZM388.582 357.692H372.952V341.164H388.582V357.692Z" fill="#3F3D56"/>
<path id="Vector_19" d="M47.6082 122.532C69.6648 122.532 87.5453 103.617 87.5453 80.2841C87.5453 56.9515 69.6648 38.0366 47.6082 38.0366C25.5515 38.0366 7.67108 56.9515 7.67108 80.2841C7.67108 103.617 25.5515 122.532 47.6082 122.532Z" fill="#8C8C8C"/>
<path id="Vector_20" d="M61.5257 30.08C57.9096 29.5935 54.2498 29.5935 50.6337 30.08C42.5776 31.199 34.9941 34.7392 28.7829 40.2806C22.5718 45.822 17.9937 53.132 15.592 61.3432C14.4996 65.0852 13.8811 68.964 13.7524 72.878C13.7343 73.4221 13.7222 73.9726 13.7222 74.5231C13.7334 86.4033 18.1997 97.7935 26.1408 106.194C34.0819 114.595 44.8492 119.319 56.0797 119.331C56.9813 119.331 57.8829 119.299 58.7724 119.241C60.8605 119.103 62.9357 118.799 64.9809 118.333C74.7471 116.111 83.4569 110.31 89.5721 101.954C95.6873 93.5979 98.8143 83.2247 98.4009 72.6664C97.9876 62.1081 94.0604 52.0439 87.313 44.2515C80.5656 36.4591 71.4321 31.4398 61.5257 30.08H61.5257ZM69.3376 115.734H69.3315C65.9202 116.965 62.3695 117.712 58.7724 117.955C57.8829 118.019 56.9813 118.051 56.0797 118.051C45.1708 118.037 34.7126 113.446 26.9989 105.286C19.2851 97.1263 14.9457 86.0631 14.9323 74.5231C14.9323 73.9726 14.9445 73.4221 14.9626 72.878C15.3786 61.6317 19.8908 50.9916 27.5548 43.1849C35.2188 35.3783 45.4403 31.0103 56.0797 30.9954C65.828 30.9959 75.2596 34.6575 82.694 41.3278C90.1285 47.9981 95.0829 57.2437 96.6747 67.4176C98.2665 77.5915 96.3922 88.0328 91.3857 96.8812C86.3793 105.73 78.5659 112.411 69.3376 115.734H69.3376Z" fill="#3F3D56"/>
<path id="Vector_21" d="M56.6848 33.5558H55.4746V42.5174H56.6848V33.5558Z" fill="#3F3D56"/>
<path id="Vector_22" d="M29.1235 45.1022L28.2678 46.0075L34.258 52.3443L35.1138 51.439L29.1235 45.1022Z" fill="#3F3D56"/>
<path id="Vector_23" d="M17.3528 73.883V75.1632H25.8243V73.883H17.3528Z" fill="#3F3D56"/>
<path id="Vector_24" d="M28.2678 103.039L29.1235 103.944L35.1138 97.6072L34.258 96.7019L28.2678 103.039Z" fill="#3F3D56"/>
<path id="Vector_25" d="M77.0456 51.439L77.9014 52.3443L83.8916 46.0075L83.0359 45.1022L77.0456 51.439Z" fill="#3F3D56"/>
<path id="Vector_26" d="M86.3351 73.883V75.1632H94.8066V73.883H86.3351Z" fill="#3F3D56"/>
<path id="Vector_27" d="M77.9014 96.7019L77.0456 97.6072L83.0359 103.944L83.8916 103.039L77.9014 96.7019Z" fill="#3F3D56"/>
<path id="Vector_28" d="M56.6848 106.529H55.4746V115.49H56.6848V106.529Z" fill="#3F3D56"/>
<path id="Vector_29" d="M57.895 71.9627C57.3713 71.5472 56.7343 71.3226 56.0797 71.3226C55.4251 71.3226 54.7881 71.5472 54.2644 71.9627C53.9059 72.2508 53.6107 72.6177 53.3991 73.0381C53.131 73.5794 53.0151 74.1907 53.0649 74.7995C53.1148 75.4084 53.3284 75.9894 53.6804 76.4739C54.0325 76.9585 54.5084 77.3263 55.0517 77.5339C55.5951 77.7414 56.1833 77.7801 56.7468 77.6453C57.3103 77.5105 57.8255 77.2079 58.2316 76.7733C58.6377 76.3386 58.9176 75.79 59.0384 75.1924C59.1592 74.5947 59.1157 73.973 58.9131 73.4007C58.7105 72.8284 58.3572 72.3294 57.895 71.9627H57.895ZM56.0797 76.4435C55.5987 76.442 55.1378 76.2392 54.7976 75.8794C54.4575 75.5196 54.2658 75.032 54.2644 74.5231C54.2667 74.1348 54.3784 73.7559 54.5851 73.4349C54.7624 73.1633 55.003 72.9447 55.2835 72.8001C55.5641 72.6556 55.8751 72.5901 56.1866 72.61C56.4981 72.6299 56.7995 72.7344 57.0616 72.9135C57.3237 73.0927 57.5377 73.3403 57.6829 73.6325C57.828 73.9247 57.8995 74.2516 57.8902 74.5816C57.881 74.9115 57.7915 75.2334 57.6303 75.516C57.4691 75.7987 57.2417 76.0326 56.9701 76.195C56.6984 76.3575 56.3918 76.4431 56.0797 76.4435V76.4435Z" fill="#3F3D56"/>
<path id="Vector_30" d="M61.5257 18.8332H50.6337V30.3553H61.5257V18.8332Z" fill="#3F3D56"/>
<path id="Vector_31" d="M56.0797 20.7536C64.1003 20.7536 70.6023 18.3175 70.6023 15.3126C70.6023 12.3076 64.1003 9.87161 56.0797 9.87161C48.0591 9.87161 41.5571 12.3076 41.5571 15.3126C41.5571 18.3175 48.0591 20.7536 56.0797 20.7536Z" fill="#3F3D56"/>
<path id="Vector_32" d="M57.895 50.1988H54.2643V71.9627H57.895V50.1988Z" fill="#3F3D56"/>
<path id="Vector_33" d="M113.76 117.381H0V118.661H113.76V117.381Z" fill="#3F3D56"/>
<path id="Vector_34" d="M75.8034 319.359C76.273 336.372 66.8762 342.607 55.0833 342.971C54.8094 342.98 54.5367 342.985 54.2652 342.987C53.7183 342.991 53.1768 342.982 52.6405 342.958C41.975 342.49 33.5327 336.501 33.0959 320.679C32.6439 304.305 51.8558 283.031 53.2972 281.457L53.2997 281.455C53.3545 281.396 53.3825 281.365 53.3825 281.365C53.3825 281.365 75.3337 302.348 75.8034 319.359Z" fill="#D0CDE1"/>
<path id="Vector_35" d="M54.2343 340.393L61.7255 328.608L54.2496 341.661L54.2652 342.987C53.7183 342.991 53.1767 342.982 52.6405 342.958L53.012 325.912L53.0019 325.781L53.0156 325.755L53.0511 324.145L44.8474 311.545L53.0414 322.939L53.0705 323.28L53.3512 310.401L46.2653 297.338L53.3713 308.138L53.2972 281.457L53.2973 281.368L53.2997 281.455L53.7701 302.484L60.228 293.942L53.7912 304.296L53.9322 315.815L59.8748 304.573L53.954 317.509L54.0325 323.915L62.6746 308.253L54.0588 326.149L54.2343 340.393Z" fill="#3F3D56"/>
<path id="Vector_36" d="M401.983 319.359C402.453 336.372 393.056 342.607 381.263 342.971C380.989 342.98 380.716 342.985 380.445 342.987C379.898 342.991 379.356 342.982 378.82 342.958C368.155 342.49 359.712 336.501 359.276 320.679C358.824 304.305 378.035 283.031 379.477 281.457L379.479 281.455C379.534 281.396 379.562 281.365 379.562 281.365C379.562 281.365 401.513 302.348 401.983 319.359Z" fill="#D0CDE1"/>
<path id="Vector_37" d="M380.414 340.393L387.905 328.608L380.429 341.661L380.445 342.987C379.898 342.991 379.356 342.982 378.82 342.958L379.192 325.912L379.182 325.781L379.195 325.755L379.231 324.145L371.027 311.545L379.221 322.939L379.25 323.28L379.531 310.401L372.445 297.338L379.551 308.138L379.477 281.457L379.477 281.368L379.479 281.455L379.95 302.484L386.408 293.942L379.971 304.296L380.112 315.815L386.055 304.573L380.134 317.509L380.212 323.915L388.854 308.253L380.239 326.149L380.414 340.393Z" fill="#3F3D56"/>
</g>
</svg>
